<?xml version="1.0" standalone="no"?><!DOCTYPE svg PUBLIC "-//W3C//DTD SVG 1.1//EN" "http://www.w3.org/Graphics/SVG/1.1/DTD/svg11.dtd"><svg t="1634618315649" class="icon" viewBox="0 0 1024 1024" version="1.1" xmlns="http://www.w3.org/2000/svg" p-id="8275" xmlns:xlink="http://www.w3.org/1999/xlink" width="200" height="200"><defs><style type="text/css"></style></defs><path d="M213.333333 874.666667A149.333333 149.333333 0 0 1 64 725.333333 149.333333 149.333333 0 0 1 213.333333 576 149.333333 149.333333 0 0 1 362.666667 725.333333 149.333333 149.333333 0 0 1 213.333333 874.666667M213.333333 512a213.333333 213.333333 0 0 0-213.333333 213.333333 213.333333 213.333333 0 0 0 213.333333 213.333334 213.333333 213.333333 0 0 0 213.333334-213.333334 213.333333 213.333333 0 0 0-213.333334-213.333333m418.133334-85.333333H810.666667V349.866667h-136.533334l-82.773333-139.52c-12.373333-21.333333-36.693333-35.413333-62.293333-35.413334-20.053333 0-38.4 8.106667-51.2 21.333334L320 353.706667C306.773333 366.933333 298.666667 384 298.666667 405.333333c0 26.88 14.08 49.493333 36.266666 62.72L477.866667 554.666667v213.333333H554.666667v-277.333333l-96-70.4 98.986666-100.266667m253.013334 554.666667a149.333333 149.333333 0 0 1-149.333334-149.333334 149.333333 149.333333 0 0 1 149.333334-149.333333 149.333333 149.333333 0 0 1 149.333333 149.333333 149.333333 149.333333 0 0 1-149.333333 149.333334m0-362.666667a213.333333 213.333333 0 0 0-213.333334 213.333333 213.333333 213.333333 0 0 0 213.333334 213.333334 213.333333 213.333333 0 0 0 213.333333-213.333334 213.333333 213.333333 0 0 0-213.333333-213.333333m-128-307.2c42.666667 0 76.8-34.133333 76.8-76.8S725.333333 51.2 682.666667 51.2 605.866667 85.333333 605.866667 128 640 204.8 682.666667 204.8z" fill="#336699" p-id="8276"></path></svg>